<?xml version="1.0" standalone="no"?>
<!DOCTYPE svg PUBLIC "-//W3C//DTD SVG 20010904//EN"
 "http://www.w3.org/TR/2001/REC-SVG-20010904/DTD/svg10.dtd">
<svg version="1.0" xmlns="http://www.w3.org/2000/svg"
 width="16.000000pt" height="16.000000pt" viewBox="0 0 16.000000 16.000000"
 preserveAspectRatio="xMidYMid meet">

<g transform="translate(0.000000,16.000000) scale(0.100000,-0.100000)"
fill="#000000" stroke="none">
<path d="M100 120 c0 -5 -18 -10 -40 -10 -40 0 -40 0 -38 -37 1 -37 1 -37 5
-5 2 17 8 32 13 32 5 0 11 -15 13 -32 l4 -33 1 33 c1 17 7 32 12 32 6 0 11
-15 11 -32 l2 -33 7 35 7 35 2 -32 c1 -25 6 -33 19 -32 10 0 12 3 5 6 -15 5
-18 50 -4 55 5 2 3 9 -5 16 -8 7 -14 8 -14 2z"/>
</g>
</svg>
